<svg width="107" height="40" viewBox="0 0 107 40" fill="none" xmlns="http://www.w3.org/2000/svg">
<g clip-path="url(#clip0_692_293)">
<path d="M48.728 15.964L49.04 16.024V28H44.864V12.16H50.528L56.252 24.112L55.952 24.172V12.16H60.116V28H54.428L48.728 15.964ZM66.7096 22.3L61.1896 12.16H66.2656L68.7856 17.548L71.3176 12.16H76.3696L70.8856 22.3V28H66.7096V22.3ZM77.6096 12.16H81.7856V24.364H87.3536V28H77.6096V12.16ZM93.1209 20.068C93.1209 20.868 93.2809 21.596 93.6009 22.252C93.9289 22.9 94.3849 23.416 94.9689 23.8C95.5529 24.184 96.2329 24.376 97.0089 24.376C97.7849 24.376 98.4649 24.184 99.0489 23.8C99.6329 23.416 100.085 22.9 100.405 22.252C100.733 21.596 100.897 20.868 100.897 20.068C100.897 19.268 100.733 18.544 100.405 17.896C100.085 17.248 99.6329 16.732 99.0489 16.348C98.4649 15.956 97.7849 15.76 97.0089 15.76C96.2329 15.76 95.5529 15.956 94.9689 16.348C94.3849 16.732 93.9289 17.248 93.6009 17.896C93.2809 18.544 93.1209 19.268 93.1209 20.068ZM88.7649 20.068C88.7649 18.916 88.9729 17.844 89.3889 16.852C89.8049 15.852 90.3849 14.98 91.1289 14.236C91.8729 13.492 92.7449 12.912 93.7449 12.496C94.7529 12.08 95.8409 11.872 97.0089 11.872C98.1929 11.872 99.2849 12.08 100.285 12.496C101.285 12.912 102.157 13.492 102.901 14.236C103.645 14.98 104.221 15.852 104.629 16.852C105.037 17.844 105.241 18.916 105.241 20.068C105.241 21.228 105.041 22.308 104.641 23.308C104.241 24.3 103.673 25.172 102.937 25.924C102.209 26.668 101.341 27.248 100.333 27.664C99.3249 28.08 98.2169 28.288 97.0089 28.288C95.7609 28.288 94.6329 28.08 93.6249 27.664C92.6169 27.248 91.7489 26.668 91.0209 25.924C90.3009 25.172 89.7449 24.3 89.3529 23.308C88.9609 22.308 88.7649 21.228 88.7649 20.068Z" fill="#0A0102"/>
<g clip-path="url(#clip1_692_293)">
<path fill-rule="evenodd" clip-rule="evenodd" d="M26.7144 3.24062V15.9047C26.7144 17.8335 24.9338 19.4063 23.0442 19.4063C17.1603 19.4063 17.1349 6.11642 6.96552 9.25265C5.87944 9.57639 4.92988 10.2433 4.26153 11.1517C3.59318 12.0601 3.24269 13.1603 3.26345 14.2845L3.31837 20.0124L3.38842 26.8468C3.3889 27.6589 3.65258 28.4493 4.14056 29.1015C4.62855 29.7537 5.31501 30.2332 6.09871 30.4692L7.24332 30.8267V24.1494C7.24821 23.3809 7.49833 22.6338 7.95781 22.015C8.4173 21.3961 9.06258 20.9374 9.80117 20.7045C10.5398 20.4717 11.3337 20.4766 12.0693 20.7186C12.8049 20.9606 13.4444 21.4272 13.8961 22.0517C16.6358 25.8067 17.2407 33.5233 24.3806 36.1655C26.0737 36.6927 27.1514 37.3564 29.1565 36.0077C30.2095 35.2974 30.7365 34.176 30.7365 32.9141V7.08317C30.7353 6.56655 30.6294 6.05544 30.425 5.58022C30.2206 5.10501 29.9219 4.67539 29.5466 4.31692C29.1714 3.95845 28.7273 3.67844 28.2408 3.49354C27.7542 3.30864 27.2352 3.22263 26.7144 3.24062ZM24.824 0.305627C25.8889 -0.00990278 27.0135 -0.074332 28.1081 0.117479C29.2026 0.309289 30.2368 0.752032 31.1281 1.41039C32.0195 2.06876 32.7433 2.92452 33.2419 3.90944C33.7405 4.89435 34.0001 5.98116 34 7.08317V32.9172C33.9999 34.0277 33.7363 35.1225 33.2303 36.1131C32.7243 37.1037 31.9901 37.9623 31.0873 38.6193C30.1845 39.2764 29.1383 39.7135 28.0335 39.8953C26.9286 40.077 25.7961 39.9984 24.7277 39.6656L5.12205 33.5589C3.68091 33.1182 2.41922 32.233 1.52059 31.0322C0.621967 29.8314 0.133305 28.3776 0.125725 26.8823L0.0548833 20.0456L-3.8897e-05 14.3177C-0.028239 12.4974 0.541447 10.7173 1.62306 9.24621C2.70467 7.77507 4.23953 6.69262 5.99603 6.16219C13.8157 3.75122 18.1155 2.2928 24.824 0.305627Z" fill="#C90E0E"/>
</g>
</g>
<defs>
<clipPath id="clip0_692_293">
<rect width="107" height="40" fill="white"/>
</clipPath>
<clipPath id="clip1_692_293">
<rect width="34" height="40" fill="white"/>
</clipPath>
</defs>
</svg>
