<svg width="98" height="98" viewBox="0 0 98 98" fill="none" xmlns="http://www.w3.org/2000/svg">
<path d="M77.7876 39.0775C79.8088 33.9938 82.9937 28.9713 87.2506 24.1325C88.5981 22.6012 88.7818 20.3963 87.6794 18.6813C86.8218 17.3338 85.4132 16.5988 83.8819 16.5988C83.4531 16.5988 83.0243 16.6293 82.5955 16.7826C73.592 19.4163 52.5524 28.7569 51.9705 58.7082C51.7563 70.2537 60.2087 80.1762 71.2031 81.3093C77.2975 81.9218 83.3612 79.9313 87.8631 75.8888C92.3649 71.8156 94.9375 65.9968 94.9375 59.9331C94.9375 49.8269 87.7712 40.9762 77.7876 39.0775Z" fill="white" fill-opacity="0.7"/>
<path d="M22.3254 81.3093C28.3893 81.9218 34.453 79.9313 38.9547 75.8888C43.4567 71.8156 46.0293 65.9968 46.0293 59.9331C46.0293 49.8269 38.863 40.9762 28.8792 39.0775C30.9005 33.9938 34.0855 28.9713 38.3424 24.1325C39.6899 22.6012 39.8736 20.3963 38.771 18.6813C37.9136 17.3338 36.5048 16.5989 34.9735 16.5989C34.5449 16.5989 34.1161 16.6293 33.6873 16.7826C24.6836 19.4163 3.64421 28.7569 3.06233 58.7082V59.1368C3.06233 70.4988 11.4229 80.1762 22.3254 81.3093Z" fill="white" fill-opacity="0.7"/>
</svg>
