<svg width="16" height="16" viewBox="0 0 16 16" fill="none" xmlns="http://www.w3.org/2000/svg">
<path d="M11.75 1.50492C12.8812 2.15806 13.8222 3.09531 14.4799 4.22389C15.1375 5.35248 15.489 6.63325 15.4996 7.93942C15.5101 9.2456 15.1794 10.5319 14.54 11.6709C13.9007 12.81 12.9749 13.7623 11.8544 14.4337C10.7339 15.105 9.45753 15.472 8.15157 15.4985C6.84562 15.5249 5.55541 15.2098 4.40867 14.5844C3.26192 13.9589 2.2984 13.0448 1.6135 11.9326C0.928597 10.8203 0.546057 9.54845 0.50375 8.24292L0.5 7.99992L0.50375 7.75692C0.545752 6.46166 0.922661 5.19939 1.59773 4.09316C2.2728 2.98694 3.22299 2.07451 4.35567 1.44483C5.48835 0.815154 6.76486 0.489717 8.06075 0.500248C9.35665 0.510778 10.6277 0.856918 11.75 1.50492ZM8 3.49992C7.8163 3.49994 7.639 3.56739 7.50172 3.68946C7.36444 3.81153 7.27674 3.97973 7.25525 4.16217L7.25 4.24992V7.99992L7.25675 8.09817C7.27385 8.22829 7.3248 8.35165 7.4045 8.45592L7.46975 8.53092L9.71975 10.7809L9.79025 10.8424C9.92178 10.9445 10.0835 10.9999 10.25 10.9999C10.4165 10.9999 10.5782 10.9445 10.7098 10.8424L10.7802 10.7802L10.8425 10.7097C10.9445 10.5781 10.9999 10.4164 10.9999 10.2499C10.9999 10.0834 10.9445 9.9217 10.8425 9.79017L10.7802 9.71967L8.75 7.68867V4.24992L8.74475 4.16217C8.72326 3.97973 8.63556 3.81153 8.49828 3.68946C8.361 3.56739 8.1837 3.49994 8 3.49992Z" fill="#808080"/>
</svg>
